<svg xmlns="http://www.w3.org/2000/svg" viewBox="0 0 1056.44 304.75"><defs><style>.cls-1{stroke:#000;stroke-width:2px;}</style></defs><title>Idle-cuteAsset 1</title><g id="Layer_2" data-name="Layer 2"><g id="Layer_1-2" data-name="Layer 1"><path class="cls-1" d="M1054.44,251.75c-5.4-22.4-29.2-27.4-48.4-29.8-15-1.4-30.8-3.2-31.8-17.6a18.34,18.34,0,0,1,3.4-13c5.6-7.2,16-10.4,25.4-10.6,12.2-.2,25.52,4.1,28.32,16.7l20.28.3c-3.6-25.6-25.9-35.8-47.5-35.8-16.2,0-33.1,5.4-42.5,17.6a37.86,37.86,0,0,0-7.6,26.6V206c2.2,29.2,27.8,34,49.6,36.2,14,1.4,28.4,3.2,30.8,13.8a22.42,22.42,0,0,1,.6,4.8c0,14.4-16.4,22.8-31.4,22.8-13,0-28.8-6.8-30.2-19.8v.8l-.2-3-20.4.4.2,3.8A36,36,0,0,0,959,282.2l-3.93.05h-65.8V162.05H869v120.1h-9.61L811.8,162H795.89l-47.64,120.2H731.61a38.08,38.08,0,0,0,6.43-21.6v-98h-20.4v97.8c0,15.4-16.6,23.2-31.2,23.2-14.8,0-31.4-7.6-31.4-23l.29-98.6h-83c-16.2,0-33.08,5.65-42.48,17.85a37.86,37.86,0,0,0-7.6,26.6v-.2c2.2,29.2,27.8,34,49.6,36.2,14,1.4,28.4,3.2,30.8,13.8a22.42,22.42,0,0,1,.6,4.8c0,14.4-16.41,22.8-31.4,22.8-13,0-28.8-6.8-30.2-19.8v.8l-.2-3-20.4.4.2,3.8a33.62,33.62,0,0,0,6.19,16.4h-38V182.8h26v-20h-100l-42.2,105.1L324,136.44l33.8-113H372.2V144.7H550.79V122.9h-65V83.3h63.4V62.9h-63.4V23.5h64.8l14.18-.1a38.13,38.13,0,0,0-5.58,23.7v-.2c2.2,29.2,27.8,34,49.6,36.2,14,1.4,28.4,3.2,30.8,13.8a22.42,22.42,0,0,1,.6,4.8c0,14.4-16.4,22.8-31.4,22.8-13,0-28.8-6.8-30.2-19.8v.8l-.2-3-20.4.4.2,3.8a35.87,35.87,0,0,0,5.94,16.45c9.47,14.15,28.79,21.55,45,21.55H722.29c25.19,0,49.1-15.8,49.1-42.8a49.74,49.74,0,0,0-1-9.2C765,70.3,741.19,65.3,722,62.9c-15-1.4-30.8-3.2-31.8-17.6a18.34,18.34,0,0,1,3.4-13c5.6-7.2,16-10.4,25.4-10.6,12.2-.2,25.8,5.2,28.6,17.8l20-.8C764,13.1,741.59,1.9,720,1.9c-16.2,0-33,6.4-42.4,18.6A37.86,37.86,0,0,0,670,47.1v-.2c2.2,29.2,27.8,34,49.6,36.2,14,1.4,28.4,3.2,30.8,13.8a22.42,22.42,0,0,1,.6,4.8c0,14.4-16.4,22.8-31.4,22.8-13,0-28.8-6.8-30.2-19.8v.8l-.2-3-20.4.4.2,3.8a35.86,35.86,0,0,0,5.93,16.45l-20.86-.05a36.85,36.85,0,0,0,6.53-21.2,49.74,49.74,0,0,0-1-9.2c-5.4-22.4-29.2-27.4-48.4-29.8-15-1.4-30.8-3.2-31.8-17.6a18.34,18.34,0,0,1,3.4-13c5.6-7.2,16-10.4,25.4-10.6,12.2-.2,25.8,5.2,28.6,17.8l20-.8c-3.6-25.6-26.4-35.2-48-35.2l-58.2-.2H465.4V123.1h-73V3.5h-49C333,35.3,320.8,70.9,309.8,104.3L287,39.1H270.8l-23,65.4L214.4,3.5h-21l37.12,112.32-28.33-.29L156.8,1H142L86.78,122.39l-65.58.21V3H1V144.7H106.82c4.4-11.6,12.18-30.3,17.58-43.1h50.2l17.57,43.1H257.7c7.2-21.2,13.1-45.2,21.1-68l87.05,226.8h14.8l48.42-120.8,14.18.1h26v99.6h-26v21.35h129c25.19,0,51.36-15.55,51.36-42.55a49.74,49.74,0,0,0-1-9.2c-5.4-22.4-29.2-27.4-48.4-29.8-15-1.4-30.8-3.2-31.8-17.6a18.34,18.34,0,0,1,3.4-13c5.6-7.2,16-10.4,25.4-10.6,12.2-.2,25.45,3.85,28.24,16.45h20.16a36.86,36.86,0,0,0-5.71-15.75l20.7.75v77.9c0,28.6,27.2,43.4,51.8,43.4h75c4.4-11.6,12-29.8,17.37-42.6H829l17.37,42.6,108.63-.1,48.4-.1c25.2,0,52-15.6,52-42.6A49.74,49.74,0,0,0,1054.44,251.75ZM132,82.6l17.6-49.4,17.2,49.4ZM784.44,242.15l17.6-49.4,17.2,49.4Z"/></g></g></svg>